<?xml version="1.0" standalone="no"?><!DOCTYPE svg PUBLIC "-//W3C//DTD SVG 1.1//EN" "http://www.w3.org/Graphics/SVG/1.1/DTD/svg11.dtd"><svg t="1630551782910" class="icon" viewBox="0 0 1024 1024" version="1.1" xmlns="http://www.w3.org/2000/svg" p-id="5751" xmlns:xlink="http://www.w3.org/1999/xlink" width="200" height="200"><defs><style type="text/css"></style></defs><path d="M983.04 30.72c-10.24-17.066667-30.72-30.72-51.2-30.72H92.16c-20.48 0-40.96 13.653333-51.2 34.133333-10.24 20.48-10.24 40.96 3.413333 61.44l327.68 477.866667c3.413333 3.413333 3.413333 10.24 3.413334 13.653333v375.466667c0 34.133333 27.306667 58.026667 61.44 58.026667 10.24 0 20.48-3.413333 30.72-6.826667l153.6-78.506667c17.066667-10.24 27.306667-30.72 27.306666-51.2V580.266667c0-6.826667 0-10.24 3.413334-13.653334l88.746666-126.293333 3.413334 3.413333 51.2 27.306667c10.24 6.826667 20.48 10.24 30.72 10.24 17.066667 0 37.546667-6.826667 47.786666-23.893333l71.68-92.16c10.24-13.653333 13.653333-30.72 10.24-47.786667s-13.653333-30.72-27.306666-37.546667l-47.786667-34.133333h-3.413333l102.4-146.773333c13.653333-23.893333 13.653333-47.786667 3.413333-68.266667z m-546.133333 443.733333c-3.413333 3.413333-6.826667 3.413333-10.24 3.413334-6.826667 0-10.24-3.413333-13.653334-6.826667l-238.933333-341.333333c-6.826667-6.826667-3.413333-20.48 3.413333-23.893334 6.826667-6.826667 20.48-3.413333 23.893334 3.413334l238.933333 341.333333c6.826667 6.826667 3.413333 20.48-3.413333 23.893333z m471.04-170.666666c6.826667 3.413333 10.24 10.24 13.653333 17.066666s0 13.653333-3.413333 20.48l-71.68 92.16c-6.826667 10.24-23.893333 13.653333-34.133334 6.826667l-51.2-27.306667 98.986667-143.36 3.413333 3.413334 44.373334 30.72z" fill="" p-id="5752"></path></svg>